<svg width="21" height="20" viewBox="0 0 21 20" fill="none" xmlns="http://www.w3.org/2000/svg">
<path d="M9.52535 3.05176e-05C4.66898 3.05176e-05 0.717773 3.95124 0.717773 8.8076C0.717773 13.6642 4.66898 17.6152 9.52535 17.6152C14.382 17.6152 18.3329 13.6642 18.3329 8.8076C18.3329 3.95124 14.382 3.05176e-05 9.52535 3.05176e-05ZM9.52535 15.9892C5.56547 15.9892 2.34379 12.7675 2.34379 8.80764C2.34379 4.84776 5.56547 1.62605 9.52535 1.62605C13.4852 1.62605 16.7069 4.84772 16.7069 8.8076C16.7069 12.7675 13.4852 15.9892 9.52535 15.9892Z" fill="#AEAEAE"/>
<path d="M20.4796 18.6122L15.8183 13.951C15.5007 13.6333 14.9863 13.6333 14.6687 13.951C14.3511 14.2683 14.3511 14.7832 14.6687 15.1006L19.3299 19.7618C19.4887 19.9206 19.6966 20 19.9047 20C20.1126 20 20.3207 19.9206 20.4796 19.7618C20.7972 19.4445 20.7972 18.9295 20.4796 18.6122Z" fill="#AEAEAE"/>
</svg>
